<?xml version="1.0" encoding="UTF-8"?><svg id="Layer_1" xmlns="http://www.w3.org/2000/svg" viewBox="0 0 982 1010"><defs><style>.cls-1{fill:#789759;}</style></defs><path class="cls-1" d="m282.69,984.1c-.11-.9-.28-1.57-.26-2.25.87-23.28,6.29-45.14,20.75-63.97,6.22-8.1,13.88-14.47,24.19-16.72,3.69-.81,7.5-1.11,11.26-1.54,6.85-.79,13.7-1.52,20.55-2.25,6.35-.68,12.71-1.31,19.07-2,6.55-.7,13.1-1.46,19.65-2.17,6.35-.69,12.71-1.35,19.06-2.02,5.96-.63,11.92-1.23,17.88-1.91,1.95-.22,2.35-.74,2.46-2.7.06-.9.03-1.8.03-2.7v-52.85c0-.7-.02-1.4,0-2.1.08-2.3.07-2.4,2.27-2.69,3.36-.44,6.75-.76,10.13-1.07,8.35-.79,16.7-1.56,25.05-2.3,5.47-.49,10.95-.87,16.42-1.36,5.57-.49,11.14-1.07,16.71-1.58,5.17-.48,10.34-.91,15.51-1.38,5.97-.55,11.93-1.13,17.9-1.66,5.27-.47,10.55-.88,15.82-1.35,5.87-.53,11.73-1.1,17.6-1.63,5.17-.47,10.34-.91,15.51-1.37,5.97-.53,11.94-1.09,17.9-1.63,5.07-.45,10.15-.9,15.22-1.36,6.07-.56,12.13-1.13,18.19-1.67,5.38-.47,10.75-.89,16.12-1.36,5.67-.5,11.34-1.06,17.01-1.56,1.37-.12,2.74-.14,4.44-.21.1,1.43.26,2.58.26,3.74.02,16.51.01,33.03.01,49.54v4.18c1.59.06,2.86.25,4.1.12,6.36-.64,12.71-1.36,19.06-2.05,4.66-.51,9.33-1.02,13.99-1.52,4.47-.48,8.94-.94,13.41-1.43,4.76-.51,9.52-1.04,14.28-1.57,4.57-.5,9.17-.77,13.69-1.54,9.41-1.59,16.89,1.67,23.02,8.61,6.09,6.91,9.72,15.11,12.21,23.85,2.54,8.88,3.97,17.94,4,27.21.01,3.36-.12,3.41-3.46,3.84-8.42,1.08-16.83,2.25-25.24,3.36-6.63.88-13.27,1.72-19.91,2.59-7.22.94-14.45,1.91-21.68,2.85-6.63.86-13.27,1.69-19.91,2.56-10.19,1.34-20.39,2.71-30.59,4.04-8.22,1.07-16.44,2.1-24.66,3.17-10.2,1.33-20.39,2.71-30.59,4.04-8.22,1.07-16.45,2.1-24.67,3.17-10.1,1.32-20.2,2.67-30.3,3.98-6.93.9-13.87,1.76-20.81,2.65-6.73.88-13.46,1.78-20.2,2.66-6.93.91-13.86,1.82-20.79,2.72-6.84.89-13.67,1.77-20.51,2.66-6.93.91-13.86,1.83-20.79,2.74-8.61,1.13-17.22,2.27-25.84,3.39-8.42,1.09-16.84,2.15-25.26,3.25-6.83.89-13.66,1.84-20.49,2.73-6.83.9-13.67,1.76-20.5,2.65-6.84.88-13.67,1.77-20.5,2.66-6.94.91-13.87,1.83-20.8,2.74-8.51,1.11-17.03,2.21-25.55,3.33-6.64.86-13.27,1.75-19.91,2.61-.37.05-.77-.08-1.51-.17Z"/><path class="cls-1" d="m682.8,331.29c.64-3.94,2.5-4.89,6.1-3.27,5.56,2.5,11.1,5.06,16.71,7.45,20.68,8.84,41.41,17.59,62.1,26.43,20.23,8.65,40.38,17.48,60.08,27.29,4.92,2.46,9.7,5.2,14.57,7.75,2.05,1.08,3.37,2.62,4.24,4.8,2.08,5.17,3.01,10.57,3.27,16.08.37,7.71-.28,15.38-1.03,23.05-.32,3.28-.59,6.57-.74,9.86-.17,3.62-1.3,6.64-4.61,8.53-3.64,2.08-7.26,4.19-10.92,6.23-1.31.72-2.71,1.3-4.09,1.87-2.26.93-4.11,2.33-5.8,4.12-3.96,4.21-8.92,7.12-14.06,9.59-7.02,3.38-14.17,6.51-21.36,9.52-13.48,5.65-26.51,12.2-39.31,19.24-14.02,7.71-28.13,15.26-42.26,22.76-3.88,2.05-7.98,3.69-12.03,5.42-2.17.92-2.59.67-4.03-1.18-1.1-1.41-1.55-2.96-1.54-4.74.05-6.01.02-12.01.02-16.55.29-14.17.58-26.87.76-39.58.03-1.98.77-3.26,2.44-4.07,5.4-2.59,10.7-5.43,16.25-7.66,9.56-3.83,19.28-7.24,28.91-10.91,2.79-1.07,5.51-2.35,8.2-3.67,8.62-4.24,17.21-8.52,25.79-12.84,3.12-1.57,6.19-3.27,9.24-4.98,1.39-.79,2.74-1.67,3.99-2.66,2.65-2.09,2.35-4.79-.68-6.39-1.06-.56-2.18-.99-3.28-1.48-28.47-12.79-57.29-24.68-87.06-34.16-1.33-.42-2.68-.8-4.02-1.22-3.17-.99-4.33-2.5-4.61-5.81-1.04-11.97-1.23-23.97-1.29-35.97-.02-2.5-.32-4.99-.34-7.49-.01-1.78.1-3.59.39-5.36Z"/><path class="cls-1" d="m458.98,570.34c-3.44-.49-6.94-.76-10.32-1.53-4.01-.9-4.65-2.87-2.25-6.27,1.03-1.46,2.22-2.87,3.55-4.06,3.62-3.25,6.31-7.14,8.7-11.35,12.38-21.86,25.76-43.11,39.44-64.16,17.77-27.35,35.75-54.55,53.64-81.82,10.37-15.8,20.7-31.63,31.12-47.41,13.75-20.8,28.67-40.73,44.71-59.82,1.63-1.95,3.4-2.67,5.92-2.73,6.46-.18,12.73,1,19.03,2.07,7.87,1.33,15.74,2.7,23.62,4.05,2.2.37,3.13,1.31,2.56,3.49-.52,1.97-1.32,4.07-2.61,5.6-10.34,12.35-20.83,24.57-31.27,36.83-9.53,11.2-19.17,22.31-28.53,33.65-3.16,3.84-5.65,8.23-8.35,12.43-13.73,21.37-27.36,42.82-41.18,64.13-9.9,15.28-20.17,30.31-30.93,45.01-3.53,4.82-6.16,10.28-9.25,15.43-10.33,17.25-20.7,34.47-31,51.73-1.07,1.79-2.32,2.8-4.52,2.77-2.48-.04-4.98.25-7.47.39-6.58.39-13.17.79-19.75,1.14-1.6.08-3.2.01-4.8.01l-.06.42Z"/><path class="cls-1" d="m303.94,439.42c10.42,3.52,20.77,7.24,31.14,10.88,28.02,9.82,56.03,19.66,84.08,29.39,2.69.93,4.07,2.35,4.63,5.14,1.44,7.21,1.98,14.41,1.25,21.75-.66,6.66-1.06,13.35-1.39,20.04-.34,6.99-.61,13.99-.6,20.98,0,2.78-2.36,4.17-4.62,3.65-1.43-.34-2.87-.94-4.14-1.69-16.95-9.95-34.9-17.79-53.07-25.15-47.44-19.21-94.89-38.4-142.38-57.49-2.74-1.11-4.15-2.82-5.08-5.39-1.42-3.91-2.08-7.96-2.16-12.06-.09-4.69.3-9.38.3-14.08-.01-7.41-.44-14.8-2.5-21.97-1.78-6.17-2.06-12.38-1.11-18.71.3-2,1.32-3.12,3.09-4.02,18.01-9.16,35.94-18.46,53.97-27.57,16.6-8.39,33.28-16.61,50.63-23.4,4.11-1.61,8.36-2.62,12.6-3.8,10.77-3.01,21.56-6.05,32.13-9.71,13.5-4.68,26.76-10.06,40.18-14.97,4.24-1.55,8.68-1.14,12.95.17,2.46.75,3.67,2.65,3.73,5.23.04,1.9.02,3.81.06,5.71.26,11.1.5,22.2.79,33.29.12,4.5.37,8.99.58,13.96,0,2.64-.07,5.74.02,8.84.06,1.96-.53,3.6-2.1,4.72-2.67,1.92-5.31,3.93-8.18,5.52-10.87,6.02-22.36,10.72-33.98,15.04-19.11,7.11-38.31,14-57.46,21.01-4.5,1.65-8.98,3.37-13.45,5.12-1.94.77-4.16,1.46-3.88,4.23.25,2.53,1.2,4.41,3.97,5.34Z"/><path class="cls-1" d="m84.65,777.31c.21,2.34.62,2.77,3.01,2.66,3.29-.14,6.58-.41,9.87-.65,12.76-.93,25.52-1.9,38.28-2.79,10.27-.72,20.55-1.32,30.83-1.99,3.19-.21,6.38-.45,9.57-.68,7.58-.54,15.15-1.08,22.73-1.61,6.78-.46,13.57-.9,20.35-1.37,7.78-.54,15.56-1.1,23.33-1.64,6.89-.48,13.77-.93,20.65-1.41,7.38-.51,14.76-1.06,22.14-1.57,6.98-.49,13.96-.93,20.94-1.41,7.58-.52,15.16-1.08,22.74-1.6,6.88-.48,13.76-.93,20.65-1.41,7.37-.52,14.75-1.07,22.13-1.58,6.98-.48,13.97-.92,20.95-1.4,7.68-.53,15.35-1.09,23.03-1.62,6.78-.47,13.57-.92,20.35-1.39,7.58-.53,15.15-1.08,22.73-1.6,6.98-.49,13.97-.93,20.95-1.41,7.58-.53,15.16-1.08,22.74-1.61,6.88-.47,13.76-.93,20.64-1.41,7.38-.51,14.76-1.06,22.14-1.57,6.98-.48,13.96-.93,20.94-1.41,7.58-.52,15.16-1.08,22.74-1.6,6.88-.48,13.76-.93,20.64-1.41,7.38-.51,14.76-1.07,22.14-1.58,6.98-.48,13.97-.92,20.95-1.4,7.68-.52,15.35-1.08,23.03-1.62,7.08-.49,14.16-.96,21.24-1.46,7.08-.49,14.16-1.03,21.24-1.52,7.18-.49,14.36-.93,21.55-1.42,7.57-.52,15.15-1.08,22.73-1.6,6.88-.48,13.76-.94,20.65-1.41,7.47-.52,14.95-1.07,22.43-1.59,6.88-.47,13.77-.9,20.65-1.4,6.98-.49,13.95-1.07,20.93-1.55,7.48-.52,14.97-.92,22.45-1.44,9.77-.68,19.54-1.46,29.31-2.16,8.37-.61,16.74-1.38,25.13-1.69,5.55-.21,4.87-1.05,4.87-5.53V180.22c0-1-.04-2-.01-3,.04-1.57-.71-2.42-2.26-2.61-2.68-.31-5.35-.65-8.03-.96-5.76-.66-11.51-1.3-17.27-1.97-7.93-.93-15.86-1.9-23.8-2.84-7.43-.88-14.88-1.73-22.32-2.61-7.83-.92-15.66-1.86-23.5-2.78-5.85-.68-11.71-1.32-17.56-2.01-7.84-.92-15.67-1.87-23.5-2.8-5.86-.69-11.71-1.34-17.57-2.04-7.63-.9-15.27-1.84-22.91-2.73-7.63-.89-15.28-1.71-22.92-2.6-8.03-.93-16.06-1.9-24.1-2.86-5.95-.71-11.89-1.45-17.85-2.15-5.95-.7-11.91-1.36-17.86-2.05-5.75-.66-11.51-1.31-17.26-1.99-7.84-.92-15.67-1.87-23.51-2.8-6.05-.72-12.09-1.45-18.14-2.16-5.96-.7-11.91-1.37-17.87-2.05-5.76-.66-11.51-1.31-17.27-1.99-5.95-.7-11.89-1.47-17.84-2.17-7.64-.89-15.29-1.72-22.93-2.61-7.93-.92-15.86-1.89-23.8-2.83-7.44-.88-14.88-1.75-22.32-2.62-7.84-.92-15.68-1.86-23.51-2.77-5.86-.68-11.71-1.32-17.57-2.01-7.84-.92-15.67-1.88-23.51-2.8-7.44-.88-14.88-1.73-22.32-2.6-7.94-.93-15.87-1.87-23.81-2.81-6.05-.72-12.1-1.44-18.15-2.15-5.75-.68-11.51-1.36-17.27-2.03-7.64-.88-15.28-1.73-22.92-2.63s-15.27-1.86-22.91-2.75-15.29-1.69-22.93-2.59c-9.33-1.1-18.64-2.3-27.97-3.39-9.42-1.1-18.86-2.09-28.29-3.2-11.11-1.3-22.21-2.71-33.32-4.01-9.33-1.1-18.67-2.09-27.99-3.19-11.02-1.3-22.02-2.67-33.03-3.99-10.12-1.21-20.24-2.39-30.36-3.56-1.76-.2-3.55-.24-5.74-.38-.15,2.01-.41,3.76-.41,5.51-.01,230.99-.01,461.98-.01,692.97,0,.9-.03,1.8.05,2.7ZM934.69,138.29c6.61,3.08,11.34,8.14,14.98,14.27,5.11,8.6,7.71,17.96,7.75,27.99.03,5.1.01,10.21.01,15.31,0,177.54-.01,355.08.03,532.62,0,9.38-1.8,18.27-6.05,26.63-2.15,4.22-5.01,7.91-8.39,11.26-2.36,2.33-5.1,3.31-8.3,3.56-6.67.53-13.32,1.18-19.99,1.73-5.67.47-11.35.83-17.02,1.31-5.87.5-11.73,1.1-17.59,1.62-5.37.47-10.75.89-16.12,1.35-6.26.55-12.53,1.12-18.79,1.66-5.47.47-10.95.89-16.42,1.35-6.07.53-12.13,1.08-18.2,1.62-2.78.25-5.56.52-8.35.76-6.66.59-13.32,1.18-19.99,1.73-5.67.47-11.35.84-17.02,1.33-5.77.49-11.53,1.06-17.29,1.6-2.79.25-5.57.5-8.36.74-9.05.79-18.09,1.6-27.15,2.35-5.77.49-11.55.84-17.32,1.33-5.77.5-11.52,1.15-17.29,1.65-5.67.49-11.35.85-17.02,1.33-5.87.51-11.73,1.11-17.59,1.65-2.79.26-5.58.46-8.36.71-8.95.78-17.9,1.59-26.85,2.34-5.78.48-11.56.83-17.33,1.33s-11.52,1.14-17.29,1.64c-5.67.5-11.35.85-17.02,1.34-5.87.5-11.73,1.12-17.6,1.63-5.57.49-11.15.88-16.72,1.36-5.97.51-11.93,1.08-17.9,1.62-2.78.25-5.57.49-8.35.74-9.05.79-18.1,1.6-27.15,2.35-5.68.48-11.36.83-17.03,1.32-5.77.49-11.53,1.11-17.3,1.61-5.57.49-11.15.88-16.72,1.36-5.97.51-11.93,1.08-17.9,1.61-2.88.26-5.77.51-8.65.76-8.95.79-17.9,1.6-26.86,2.35-5.77.48-11.55.83-17.32,1.33s-11.53,1.14-17.3,1.64c-5.67.5-11.35.85-17.02,1.34-5.87.5-11.73,1.11-17.6,1.64-5.27.47-10.55.87-15.82,1.32-6.37.56-12.73,1.15-19.1,1.7-5.37.46-10.75.85-16.12,1.31-6.17.53-12.33,1.12-18.5,1.65-5.37.47-10.75.89-16.12,1.35-6.27.55-12.53,1.13-18.8,1.67-5.37.46-10.75.88-16.12,1.34-6.37.54-12.73,1.13-19.1,1.67-5.47.46-10.95.87-16.42,1.35-5.97.51-11.93,1.1-17.9,1.62-5.47.48-10.95.9-16.42,1.37-6.27.53-12.53,1.1-18.8,1.65-5.27.46-10.55.88-15.82,1.35-2.05.18-3.92-.25-5.8-1.13-16.11-7.55-24.75-20.61-27.83-37.72-.56-3.13-.65-6.37-.65-9.56-.03-120.19-.03-240.38-.03-360.58s.01-240.99-.01-361.48c0-12.05,3.52-22.88,11.11-32.24,7.03-8.66,16.1-13.8,27.26-15.4,6.19-.89,12.16.25,18.19.98,10.32,1.25,20.62,2.64,30.92,3.99,9.91,1.3,19.82,2.63,29.73,3.93,10,1.3,20.02,2.57,30.03,3.87,8.22,1.07,16.45,2.16,24.67,3.24l25.86,3.36c8.23,1.08,16.45,2.18,24.67,3.25,8.62,1.13,17.25,2.23,25.87,3.36,8.12,1.06,16.25,2.14,24.37,3.2,10.31,1.34,20.62,2.67,30.92,4.01,11.2,1.47,22.39,2.96,33.59,4.43,10.21,1.33,20.42,2.64,30.63,3.98,9.9,1.29,19.81,2.62,29.72,3.91,10.1,1.32,20.22,2.59,30.32,3.91,8.33,1.08,16.64,2.22,24.97,3.32,9.8,1.29,19.62,2.55,29.43,3.84,11.69,1.53,23.38,3.08,35.07,4.6,10.01,1.3,20.03,2.55,30.04,3.85,8.22,1.07,16.44,2.19,24.66,3.27,10.11,1.32,20.22,2.6,30.33,3.92,9.71,1.27,19.42,2.58,29.13,3.85,8.72,1.14,17.44,2.23,26.17,3.37,8.12,1.05,16.24,2.12,24.37,3.19,8.72,1.14,17.44,2.27,26.16,3.41,8.22,1.08,16.44,2.18,24.66,3.26,8.53,1.12,17.05,2.22,25.57,3.33,8.32,1.09,16.64,2.19,24.97,3.28,8.52,1.11,17.04,2.21,25.57,3.33,8.32,1.09,16.64,2.19,24.96,3.28,10.11,1.32,20.22,2.61,30.33,3.93,8.32,1.09,16.64,2.2,24.97,3.29,3.36.44,6.74.78,9.89,2.25Z"/></svg>